<svg width="690" height="590" viewBox="0 0 690 590" fill="none" xmlns="http://www.w3.org/2000/svg">
<g opacity="0.56" clip-path="url(#clip0)">
<path d="M194.469 570.245H230.998V105.001L368.096 214.443L392.449 215.344V570.245H450.175" stroke="url(#paint0_linear)" stroke-width="3" stroke-miterlimit="10"/>
<path d="M307.664 570.244V33.3887H507.899V570.244H611.174" stroke="url(#paint1_linear)" stroke-width="3" stroke-miterlimit="10"/>
<path d="M346 570.244H269.333V278.847H204.392L117.353 404.954V570.244H70" stroke="url(#paint2_linear)" stroke-width="3" stroke-miterlimit="10"/>
<path d="M471.373 577.001V424.321L586.373 345.955L701.373 424.321V570.245H760" stroke="url(#paint3_linear)" stroke-width="3" stroke-miterlimit="10"/>
<path d="M536.764 570.244V123.015L597.5 103L655.372 123.015V570.244H683.332" stroke="url(#paint4_linear)" stroke-width="3" stroke-miterlimit="10"/>
<path d="M487.16 74.8242H441.16" stroke="url(#paint5_linear)" stroke-width="3" stroke-miterlimit="10"/>
<path d="M487.16 110.855H441.16" stroke="url(#paint6_linear)" stroke-width="3" stroke-miterlimit="10"/>
<path d="M487.16 146.885H441.16" stroke="url(#paint7_linear)" stroke-width="3" stroke-miterlimit="10"/>
<path d="M487.16 182.916H441.16" stroke="url(#paint8_linear)" stroke-width="3" stroke-miterlimit="10"/>
<path d="M487.16 218.946H441.16" stroke="url(#paint9_linear)" stroke-width="3" stroke-miterlimit="10"/>
<path d="M487.16 254.977H441.16" stroke="url(#paint10_linear)" stroke-width="3" stroke-miterlimit="10"/>
<path d="M487.16 291.008H441.16" stroke="url(#paint11_linear)" stroke-width="3" stroke-miterlimit="10"/>
</g>
<defs>
<linearGradient id="paint0_linear" x1="322.322" y1="105.001" x2="322.322" y2="570.245" gradientUnits="userSpaceOnUse">
<stop stop-color="#0D2FC3"/>
<stop offset="1" stop-color="#0D2FC3" stop-opacity="0"/>
</linearGradient>
<linearGradient id="paint1_linear" x1="308" y1="13.5" x2="546" y2="580.5" gradientUnits="userSpaceOnUse">
<stop stop-color="#0D2FC3"/>
<stop offset="1" stop-color="#0D2FC3" stop-opacity="0"/>
</linearGradient>
<linearGradient id="paint2_linear" x1="208" y1="278.847" x2="208" y2="570.244" gradientUnits="userSpaceOnUse">
<stop stop-color="#0D2FC3"/>
<stop offset="1" stop-color="#0D2FC3" stop-opacity="0"/>
</linearGradient>
<linearGradient id="paint3_linear" x1="615.687" y1="345.955" x2="615.687" y2="577.001" gradientUnits="userSpaceOnUse">
<stop stop-color="#0D2FC3"/>
<stop offset="1" stop-color="#0D2FC3" stop-opacity="0"/>
</linearGradient>
<linearGradient id="paint4_linear" x1="610.048" y1="123.015" x2="610.048" y2="570.244" gradientUnits="userSpaceOnUse">
<stop stop-color="#0D2FC3"/>
<stop offset="1" stop-color="#0D2FC3" stop-opacity="0"/>
</linearGradient>
<linearGradient id="paint5_linear" x1="464.16" y1="74.8242" x2="464.16" y2="75.8242" gradientUnits="userSpaceOnUse">
<stop stop-color="#0D2FC3"/>
<stop offset="1" stop-color="#0D2FC3" stop-opacity="0"/>
</linearGradient>
<linearGradient id="paint6_linear" x1="464.16" y1="110.855" x2="464.16" y2="111.855" gradientUnits="userSpaceOnUse">
<stop stop-color="#0D2FC3"/>
<stop offset="1" stop-color="#0D2FC3" stop-opacity="0"/>
</linearGradient>
<linearGradient id="paint7_linear" x1="464.16" y1="146.885" x2="464.16" y2="147.885" gradientUnits="userSpaceOnUse">
<stop stop-color="#0D2FC3"/>
<stop offset="1" stop-color="#0D2FC3" stop-opacity="0"/>
</linearGradient>
<linearGradient id="paint8_linear" x1="464.16" y1="182.916" x2="464.16" y2="183.916" gradientUnits="userSpaceOnUse">
<stop stop-color="#0D2FC3"/>
<stop offset="1" stop-color="#0D2FC3" stop-opacity="0"/>
</linearGradient>
<linearGradient id="paint9_linear" x1="464.16" y1="218.946" x2="464.16" y2="219.946" gradientUnits="userSpaceOnUse">
<stop stop-color="#0D2FC3"/>
<stop offset="1" stop-color="#0D2FC3" stop-opacity="0"/>
</linearGradient>
<linearGradient id="paint10_linear" x1="464.16" y1="254.977" x2="464.16" y2="255.977" gradientUnits="userSpaceOnUse">
<stop stop-color="#0D2FC3"/>
<stop offset="1" stop-color="#0D2FC3" stop-opacity="0"/>
</linearGradient>
<linearGradient id="paint11_linear" x1="464.16" y1="291.008" x2="464.16" y2="292.008" gradientUnits="userSpaceOnUse">
<stop stop-color="#0D2FC3"/>
<stop offset="1" stop-color="#0D2FC3" stop-opacity="0"/>
</linearGradient>
<clipPath id="clip0">
<rect width="690" height="590" fill="white"/>
</clipPath>
</defs>
</svg>
